<svg width="49" height="48" viewBox="0 0 49 48" fill="none" xmlns="http://www.w3.org/2000/svg">
<path d="M41.2605 19H43.1665C43.7025 19 44.2125 18.88 44.6665 18.664V33.5C44.6666 35.1603 44.0314 36.7577 42.8912 37.9645C41.7509 39.1713 40.1921 39.896 38.5345 39.99L38.1665 40H11.1665C9.50623 40.0001 7.90885 39.3649 6.70204 38.2247C5.49524 37.0844 4.7705 35.5256 4.6765 33.868L4.6665 33.5V17.216L23.9705 27.328C24.1853 27.4405 24.4241 27.4992 24.6665 27.4992C24.9089 27.4992 25.1478 27.4405 25.3625 27.328L41.2605 19ZM25.7165 8H11.1665L10.7945 8.01C9.24987 8.09837 7.7874 8.73482 6.67 9.80493C5.5526 10.875 4.85355 12.3086 4.6985 13.848L24.6665 24.308L34.7965 19H28.1665C27.4712 19.0001 26.7916 18.7931 26.2144 18.4054C25.6372 18.0177 25.1886 17.4668 24.9257 16.8231C24.6629 16.1794 24.5977 15.472 24.7385 14.7911C24.8794 14.1101 25.2198 13.4866 25.7165 13C25.3831 12.6748 25.1184 12.2859 24.938 11.8565C24.7576 11.427 24.6653 10.9658 24.6665 10.5C24.6665 9.52 25.0685 8.636 25.7165 8ZM43.1665 4C43.3635 4 43.5585 4.0388 43.7405 4.11418C43.9225 4.18956 44.0879 4.30005 44.2272 4.43934C44.3665 4.57863 44.4769 4.74399 44.5523 4.92597C44.6277 5.10796 44.6665 5.30302 44.6665 5.5C44.6665 5.69698 44.6277 5.89204 44.5523 6.07403C44.4769 6.25601 44.3665 6.42137 44.2272 6.56066C44.0879 6.69995 43.9225 6.81044 43.7405 6.88582C43.5585 6.9612 43.3635 7 43.1665 7H28.1665C27.9693 7.00079 27.7739 6.96254 27.5915 6.88744C27.4092 6.81234 27.2435 6.70188 27.1041 6.56243C26.9646 6.42298 26.8542 6.25731 26.7791 6.07496C26.704 5.89262 26.6657 5.69721 26.6665 5.5C26.6665 5.10218 26.8245 4.72064 27.1058 4.43934C27.3871 4.15804 27.7687 4 28.1665 4H43.1665ZM43.1665 9C43.5643 9 43.9459 9.15804 44.2272 9.43934C44.5085 9.72064 44.6665 10.1022 44.6665 10.5C44.6665 10.8978 44.5085 11.2794 44.2272 11.5607C43.9459 11.842 43.5643 12 43.1665 12H28.1665C27.7687 12 27.3871 11.842 27.1058 11.5607C26.8245 11.2794 26.6665 10.8978 26.6665 10.5C26.6665 10.1022 26.8245 9.72064 27.1058 9.43934C27.3871 9.15804 27.7687 9 28.1665 9H43.1665ZM26.6665 15.5C26.6665 15.1022 26.8245 14.7206 27.1058 14.4393C27.3871 14.158 27.7687 14 28.1665 14H43.1665C43.5643 14 43.9459 14.158 44.2272 14.4393C44.5085 14.7206 44.6665 15.1022 44.6665 15.5C44.6665 15.8978 44.5085 16.2794 44.2272 16.5607C43.9459 16.842 43.5643 17 43.1665 17H28.1665C27.7687 17 27.3871 16.842 27.1058 16.5607C26.8245 16.2794 26.6665 15.8978 26.6665 15.5Z" fill="#2E5153"/>
</svg>
