<svg width="48" height="49" viewBox="0 0 48 49" fill="none" xmlns="http://www.w3.org/2000/svg">
<path d="M22 20.5V24.5H18V28.5H14V24.5H11.6C10.8 26.9 8.6 28.5 6 28.5C2.6 28.5 0 25.9 0 22.5C0 19.1 2.6 16.5 6 16.5C8.6 16.5 10.8 18.1 11.6 20.5H22ZM6 20.5C4.8 20.5 4 21.3 4 22.5C4 23.7 4.8 24.5 6 24.5C7.2 24.5 8 23.7 8 22.5C8 21.3 7.2 20.5 6 20.5ZM32 28.5C37.4 28.5 48 31.1 48 36.5V40.5H16V36.5C16 31.1 26.6 28.5 32 28.5ZM32 24.5C27.6 24.5 24 20.9 24 16.5C24 12.1 27.6 8.5 32 8.5C36.4 8.5 40 12.1 40 16.5C40 20.9 36.4 24.5 32 24.5Z" fill="#2E5153"/>
</svg>
