<svg width="48" height="38" viewBox="0 0 48 38" fill="none" xmlns="http://www.w3.org/2000/svg">
<g clip-path="url(#clip0_623_17005)">
<path d="M16.8 19C22.1025 19 26.4 14.7473 26.4 9.5C26.4 4.25273 22.1025 0 16.8 0C11.4975 0 7.2 4.25273 7.2 9.5C7.2 14.7473 11.4975 19 16.8 19ZM23.52 21.375H22.2675C20.6025 22.132 18.75 22.5625 16.8 22.5625C14.85 22.5625 13.005 22.132 11.3325 21.375H10.08C4.515 21.375 0 25.843 0 31.35V34.4375C0 36.4043 1.6125 38 3.6 38H30C31.9875 38 33.6 36.4043 33.6 34.4375V31.35C33.6 25.843 29.085 21.375 23.52 21.375ZM47.745 11.8453L45.66 9.75977C45.315 9.41094 44.7525 9.41094 44.4 9.75234L36.54 17.4711L33.1275 14.0719C32.7825 13.723 32.22 13.723 31.8675 14.0645L29.76 16.1352C29.4075 16.4766 29.4075 17.0332 29.7525 17.382L35.88 23.4902C36.225 23.8391 36.7875 23.8391 37.14 23.4977L47.7375 13.0922C48.0825 12.7434 48.09 12.1867 47.745 11.8453Z" fill="#2E5153"/>
</g>
<defs>
<clipPath id="clip0_623_17005">
<rect width="48" height="38" fill="white"/>
</clipPath>
</defs>
</svg>
